<svg width="77" height="17" viewBox="0 0 77 17" fill="none" xmlns="http://www.w3.org/2000/svg">
<path d="M2.42 4.08H4.3V7.74H6.56V9.22H4.3V16H2.42V9.22H0.9V7.74H2.42V4.08ZM11.467 16.2C10.5337 16.2 9.72036 16.0133 9.02703 15.64C8.34703 15.2533 7.82036 14.7267 7.44703 14.06C7.08703 13.3933 6.90703 12.64 6.90703 11.8C6.90703 10.9867 7.10703 10.2467 7.50703 9.58C7.92036 8.9 8.4737 8.36667 9.16703 7.98C9.8737 7.58 10.6537 7.38 11.507 7.38C12.6004 7.38 13.507 7.7 14.227 8.34C14.947 8.98 15.4404 9.86 15.707 10.98L9.14703 13.28C9.3737 13.6933 9.6937 14.02 10.107 14.26C10.5204 14.4867 10.987 14.6 11.507 14.6C11.8804 14.6 12.2337 14.5333 12.567 14.4C12.9004 14.2667 13.2204 14.0933 13.527 13.88L14.387 15.26C13.9604 15.54 13.487 15.7667 12.967 15.94C12.4604 16.1133 11.9604 16.2 11.467 16.2ZM8.74703 11.7C8.7337 11.86 8.74036 12.0133 8.76703 12.16L13.587 10.38C13.4004 9.98 13.127 9.62667 12.767 9.32C12.4204 9.01333 11.9537 8.86 11.367 8.86C10.607 8.86 9.98036 9.12667 9.48703 9.66C8.9937 10.1933 8.74703 10.8733 8.74703 11.7ZM20.2777 16.2C19.491 16.2 18.7777 16.0333 18.1377 15.7C17.511 15.3667 17.011 14.88 16.6377 14.24C16.2777 13.5867 16.0977 12.7933 16.0977 11.86C16.0977 10.9267 16.2843 10.1267 16.6577 9.46C17.0443 8.79333 17.5577 8.28 18.1977 7.92C18.851 7.56 19.5643 7.38 20.3377 7.38C21.0843 7.38 21.7177 7.54 22.2377 7.86C22.7577 8.18 23.1643 8.56667 23.4577 9.02L23.5977 7.72H25.3177V16H23.4577V14.64C23.2977 14.8533 23.0643 15.08 22.7577 15.32C22.4643 15.56 22.1043 15.7667 21.6777 15.94C21.2643 16.1133 20.7977 16.2 20.2777 16.2ZM20.7777 14.66C21.4577 14.66 22.0377 14.4733 22.5177 14.1C22.9977 13.7133 23.311 13.1933 23.4577 12.54V10.9C23.2977 10.3267 22.9643 9.85333 22.4577 9.48C21.951 9.10667 21.371 8.92 20.7177 8.92C20.211 8.92 19.751 9.04 19.3377 9.28C18.9243 9.52 18.591 9.85333 18.3377 10.28C18.0977 10.7067 17.9777 11.2 17.9777 11.76C17.9777 12.3067 18.1043 12.8 18.3577 13.24C18.611 13.6667 18.951 14.0133 19.3777 14.28C19.8043 14.5333 20.271 14.66 20.7777 14.66ZM29.0359 7.72L29.1559 9.3C29.4759 8.7 29.9093 8.23333 30.4559 7.9C31.0159 7.55333 31.6559 7.38 32.3759 7.38C33.0559 7.38 33.6226 7.54 34.0759 7.86C34.5426 8.18 34.8293 8.61333 34.9359 9.16C35.2693 8.6 35.7026 8.16667 36.2359 7.86C36.7826 7.54 37.3626 7.38 37.9759 7.38C38.7759 7.38 39.4093 7.61333 39.8759 8.08C40.3559 8.54667 40.6093 9.14 40.6359 9.86V16H38.7759V10.56C38.7493 10.1333 38.6359 9.78 38.4359 9.5C38.2493 9.20667 37.9226 9.04667 37.4559 9.02C36.9626 9.02 36.5293 9.16667 36.1559 9.46C35.7826 9.74 35.4893 10.1133 35.2759 10.58C35.0626 11.0467 34.9493 11.54 34.9359 12.06V16H33.0559V10.56C33.0426 10.1333 32.9293 9.78 32.7159 9.5C32.5159 9.20667 32.1759 9.04667 31.6959 9.02C31.2159 9.02 30.7893 9.16667 30.4159 9.46C30.0426 9.74 29.7493 10.1133 29.5359 10.58C29.3226 11.0467 29.2159 11.5467 29.2159 12.08V16H27.3559V7.72H29.0359ZM45.5188 16V9.38H44.0988V7.7H45.5188V4.22C45.5188 3.02 45.7921 2.1 46.3388 1.46C46.8854 0.819999 47.6854 0.499999 48.7388 0.499999C49.0054 0.499999 49.3054 0.539999 49.6388 0.619999C49.9854 0.699999 50.2921 0.826666 50.5588 0.999999L49.7588 2.36C49.6388 2.24 49.5054 2.16 49.3588 2.12C49.2121 2.06667 49.0654 2.04 48.9188 2.04C48.4388 2.04 48.0588 2.20667 47.7788 2.54C47.5121 2.87333 47.3788 3.44 47.3788 4.24V7.7H49.7588V9.38H47.3788V16H45.5188ZM51.3388 0.499999H53.2188V16H51.3388V0.499999ZM54.5203 11.78C54.5203 10.9533 54.7136 10.2067 55.1003 9.54C55.5003 8.87333 56.047 8.34667 56.7403 7.96C57.4336 7.57333 58.227 7.38 59.1203 7.38C60.0136 7.38 60.8003 7.57333 61.4803 7.96C62.1603 8.34667 62.687 8.87333 63.0603 9.54C63.447 10.2067 63.6403 10.9533 63.6403 11.78C63.6403 12.6067 63.447 13.3533 63.0603 14.02C62.687 14.6867 62.1536 15.22 61.4603 15.62C60.7803 16.0067 59.987 16.2 59.0803 16.2C58.2003 16.2 57.4136 16.02 56.7203 15.66C56.0403 15.3 55.5003 14.7867 55.1003 14.12C54.7136 13.4533 54.5203 12.6733 54.5203 11.78ZM56.4003 11.8C56.4003 12.3333 56.5136 12.82 56.7403 13.26C56.9803 13.6867 57.3003 14.0267 57.7003 14.28C58.1003 14.5333 58.5536 14.66 59.0603 14.66C59.5803 14.66 60.0403 14.5333 60.4403 14.28C60.8403 14.0267 61.1536 13.6867 61.3803 13.26C61.6203 12.82 61.7403 12.3333 61.7403 11.8C61.7403 11.2667 61.6203 10.7867 61.3803 10.36C61.1536 9.92 60.8403 9.57333 60.4403 9.32C60.0403 9.05333 59.5803 8.92 59.0603 8.92C58.5536 8.92 58.0936 9.05333 57.6803 9.32C57.2803 9.58667 56.967 9.94 56.7403 10.38C56.5136 10.8067 56.4003 11.28 56.4003 11.8ZM70.0048 7.72L72.2448 12.88L74.3448 7.72H76.1848L72.3648 16.5L69.7048 10.82L67.2848 16.5L63.4448 7.72H65.2848L67.4848 12.74L69.0448 9.14L68.3848 7.72H70.0048Z" fill="#1D2830"/>
<path d="M41.7198 14.94C41.7198 14.6333 41.8265 14.38 42.0398 14.18C42.2665 13.9667 42.5132 13.86 42.7798 13.86C43.0198 13.86 43.2532 13.9667 43.4798 14.18C43.7065 14.38 43.8198 14.6333 43.8198 14.94C43.8198 15.26 43.7065 15.52 43.4798 15.72C43.2532 15.9067 43.0198 16 42.7798 16C42.5132 16 42.2665 15.9067 42.0398 15.72C41.8265 15.52 41.7198 15.26 41.7198 14.94Z" fill="#794CFF"/>
</svg>
